<?xml version="1.0" encoding="UTF-8"?>
<svg id="Layer_1" data-name="Layer 1" xmlns="http://www.w3.org/2000/svg" viewBox="0 0 439.5 342.66">
  <defs>
    <style>
      .cls-1 {
        fill: #fff;
      }
    </style>
  </defs>
  <path class="cls-1" d="M108.99,31.2c37,64.1,73.7,127.6,110.6,191.5,36.9-64,73.7-127.6,110.6-191.5M289.79,291.2c9.9-15,23.5-24.9,40.4-30.7,8.8-3.1,17.6-6.6,25.9-10.9,13.2-6.9,26.4-13.6,40.8-17.8,1.6-.5,3.2-.9,4.8-.9,4.8,0,9.3-1.4,13.1-4.3,7.5-5.7,12.6-12.5,12.3-22.7-.6-18.6.2-37.1,3.3-55.4,1.7-9.9,4.5-19.5,6.8-29.3,3.4-14.7,3.4-29.3-2.4-43.6-1.9-4.7-4.4-9-8.5-12.2-4.1-3.3-8.7-3.7-13.1-1.1,3.7,1.6,5.6,4.6,7,8.1,2.4,5.8,3.6,12,3.3,18.2-.7,12.5-1.6,25-3.1,37.4-1.6,13.1-4.7,25.8-10.3,37.9-1.4,3-3.1,5.8-5,8.5-.6.9-2.2,1.7-3.1,1.5s-1.8-1.7-2.1-2.7c-.3-1.3,0-2.8.2-4.4-.4,0-.8,0-1.1.2-5.4,2.1-7.4,8.4-4.4,13.7,2.6,4.5,3.1,9.1,1,13.9-4.1,9-11.4,14.5-20.1,18.5-2.3,1-4.5.2-6.4-1.4-1.7-1.5-2.7-3.3-2-5.8,1.8-6.1,3.4-12.2,5.1-18.3,2-7.2,4.3-14.2,6.1-21.5,4-16.6,6.2-33.6,7.4-50.6,1.6-23.2,1.9-46.4-.8-69.5-1.4-12-4.3-23.8-10.4-34.3-2.1-3.6-5.3-6.7-8.1-9.8-.6-.7-1.9-.9-3-1.3,2.2,5.4,4.5,10.3,6.2,15.3,6,17.7,6.8,36.2,7.1,54.7.2,12.8-.9,25.6-3.4,38.1-.7,3.8-1.8,7.6-3.5,11.2-1.5,3.2-4.6,3-6.4,0-.9-1.5-1.8-3.3-2-5-.5-4.1-.5-8.3-.8-12.5-2.7-.4-4.4.5-5.9,4-3.5,7.7-4.1,15.9-1.3,23.8,5.9,17,7.9,34.3,5.2,52-3.2,20.4-11.4,38.4-26.6,52.8-1.2,1.1-2.9,1.6-4.4,2.5-1.7,1.1-3.9,2-5,3.6-1.6,2.5-3.8,3.9-6.3,5-4.2,1.8-8.5,3.4-12.7,5-4.4,1.7-9,3-13.3,4.9-5.4,2.3-8.6,6.6-9.6,12.5-.2,1.3-.5,2.7-1.1,3.9-.5,1-1.7,2.4-2.3,2.3-1-.2-2.4-1.4-2.5-2.3-.6-4.2-.7-8.4-1-12.7,0-.9.2-1.8.3-2.9-2.8.1-4,1.8-4.8,3.6-2,4.4-2.4,8.9-1.1,13.6.5,1.8.8,4,.3,5.8-1,4.1-2.3,8.1-3.9,11.9-3.3,8.3-7.7,16.1-15.1,21.4-2.5,1.8-3,3.9-3.1,6.5-.2,4.9.1,9.6,3.6,13.6,1.4,1.6,2.7,3.2,4,4.8,5.9,7.3,18.4,5.7,22.2-2.9,1.2-2.7,2.1-5.7,2.3-8.6.9-12.5,4.4-24,11.3-34.9M66.69,110.8c-1.1-9-2.6-17.9-3.3-26.9-.5-7,0-14.1.1-21.2,0-2.3-.4-4.5-.3-6.8.3-4.8.6-9.7,1.2-14.5,1.5-11.9,3.8-23.6,8.7-34.6,1-2.1,2.1-4.1,3.2-6.2-.1-.2-.3-.4-.4-.6-1,.5-2.3.7-2.9,1.5-2.8,3.1-5.9,6.1-7.9,9.6-6.8,11.9-9.8,25.2-11,38.7-2,22.3-1.9,44.7-.2,67.1,1.6,21.9,5.1,43.4,11.5,64.5,2.2,7.4,4.5,14.8,6.6,22.2.8,2.7,1.2,5.4-1.3,7.6-2,1.7-4.3,2.6-6.8,1.5-7-3.2-13.1-7.5-17.5-14-4.1-6.1-5-12.2-1.1-18.9,3.2-5.5.2-11.8-5.9-13.2.1,1.2.6,2.4.3,3.5-.3,1.3-1,3.3-1.8,3.5-1.1.2-3-.7-3.7-1.7-1.8-2.5-3.4-5.2-4.7-8-5.1-10.9-8.3-22.5-9.8-34.3-1.7-13.7-3.2-27.4-3.5-41.2-.3-9.7.8-19.8,10-26.4-4.5-2.3-9-2.1-12.6,1.3-3,2.8-5.8,6.2-7.6,9.9-7.9,16.3-7.1,33.1-2.7,50.2,2.5,9.5,4.7,19.1,6.3,28.8,2.8,17.5,3.1,35.1,2.9,52.7,0,1.8-.4,3.8.1,5.4,3.9,11.8,13.9,20.5,25,20.5,1.3,0,2.5.2,3.8.6,13.8,4,26.9,9.9,39.4,17,9.4,5.3,19.2,9,29.3,12.7,27.3,9.8,44.6,28.6,49.9,57.6.8,4.5,1.4,9,2.3,13.4,1.3,7,11.1,12.5,17.8,9.9,1.7-.7,3.3-1.9,4.6-3.3,2.1-2.3,3.9-5,5.8-7.5,3.9-4.8,2.6-10.3,1.9-15.7-.1-.8-1.2-1.5-1.8-2.2-2.7-2.7-5.7-5.1-8.1-8.1-5.6-7.1-8.6-15.4-11.1-23.9-.9-2.9-.8-5.5,0-8.5,1.4-4.8.8-9.6-2-13.9-.8-1.2-2.3-1.9-3.5-2.8,0,4,.2,7.2,0,10.5-.2,2.3-.9,4.7-1.9,6.8-.9,1.9-2.5,1.8-3.5,0-.8-1.5-1.4-3.2-1.7-4.9-.7-4.7-2.8-8.7-6.8-11s-8.3-4-12.6-5.7c-5.8-2.3-11.8-4.3-17.6-6.7-1.7-.7-2.9-2.6-4.4-3.8-1.9-1.5-3.9-2.8-5.9-4.1-1-.7-2.5-.9-3.2-1.8-4.6-5.3-9.7-10.3-13.4-16.2-16.9-27.6-19.2-56.9-9.1-87.3,1.8-5.4,2.4-10.9,1.6-16.5-.6-3.8-2.1-7.5-3.7-11-.9-1.9-2.8-3.1-5.3-1.9,0,.5.3,1,.2,1.4-.3,4.3-.3,8.7-1,13-.4,2.3-1.6,5-4.6,5s-3.7-2.6-4.5-4.8c-.7-1.8-1-3.7-1.6-6l-.2-.3Z"/>
</svg>